<svg width="188" height="203" viewBox="0 0 188 203" fill="none" xmlns="http://www.w3.org/2000/svg">
<g clip-path="url(#clip0_1_4)">
<path d="M148.518 130.128L142.876 141.134C140.92 144.952 136.99 147.353 132.7 147.353H128.766C122.605 147.353 117.483 152.1 117.016 158.244L115.742 174.987C115.498 178.2 117.461 181.17 120.513 182.204L162.794 196.529C174.962 200.651 184.746 209.844 189.616 221.732L190.31 223.426L195.539 243.251H-26.1593C-20.1585 224.829 -7.1032 209.536 10.1486 200.718L29.2638 190.948C45.721 182.537 57.3486 166.97 60.7455 148.803C63.319 135.039 60.9676 120.809 54.1034 108.604L52.9256 106.51C47.7517 97.3112 44.8504 87.0092 44.4633 76.4621L43.9191 61.6362C43.4408 48.6029 47.6733 35.7162 55.7172 25.4502C67.6147 10.2662 86.765 2.32185 105.893 4.81254L113.48 5.80034C126.093 7.44264 137.588 13.8804 145.579 23.7764C150.882 30.3439 153.936 38.4404 154.291 46.874L155.391 72.9594C155.541 76.5196 156.215 80.0381 157.392 83.4016C159.894 90.5556 160.091 98.3138 157.956 105.586L156.971 108.94C154.824 116.252 151.994 123.346 148.518 130.128Z" fill="#212121" stroke="#949494" stroke-width="0.640747"/>
<path d="M58.5333 117.041L70.9883 107.077" stroke="#949494" stroke-width="0.640747"/>
<path d="M152.359 36.4987L126.648 37.7559C118.474 38.1557 110.531 40.606 103.553 44.8813C99.5136 47.3557 96.015 50.6194 93.2663 54.4771L84.4103 66.9059C83.7968 67.7669 83.4671 68.7978 83.4671 69.855V86.4559C83.4671 88.285 81.2279 89.1696 79.9778 87.8344L74.4839 81.9667C74.0829 81.5384 73.5224 81.2953 72.9357 81.2953H70.7544C68.0078 81.2953 65.6579 83.2678 65.1819 85.9729L64.7399 88.4852C63.9453 93.001 64.6763 97.6528 66.8177 101.707C67.5141 103.026 68.3835 104.245 69.4029 105.333L70.9402 106.974C71.2173 107.27 71.4046 107.638 71.4802 108.036L74.5133 123.999C74.8746 125.9 76.1237 127.514 77.8739 128.341L121.637 149.008" stroke="#949494" stroke-width="0.640747"/>
<g clip-path="url(#clip1_1_4)">
<path d="M43.194 82.4913L42.4118 63.484C42.3931 63.0303 42.5787 62.5921 42.9175 62.2898L44.9938 60.437C67.7807 40.1029 97.4445 29.1901 127.976 29.9089H141.511L153.61 30.4973C154.233 30.5275 154.743 31.0019 154.819 31.6209L156.893 48.4981C146.672 48.3665 136.47 49.4118 126.488 51.6132L122.981 52.3868C102.755 55.6956 83.2052 62.2857 65.1038 71.8969L44.1347 83.0308C43.7181 83.252 43.2134 82.9625 43.194 82.4913Z" fill="#313131" stroke="white" stroke-width="0.320373"/>
</g>
<g clip-path="url(#clip2_1_4)">
<path d="M51.8965 78.8581L55.0625 91.1308C55.7116 93.6471 58.3466 95.0962 60.8192 94.2967C63.1556 93.5413 64.4589 91.0562 63.7518 88.7047L59.5597 74.763" stroke="white" stroke-width="0.320373"/>
</g>
</g>
<defs>
<clipPath id="clip0_1_4">
<rect width="188" height="203" fill="white"/>
</clipPath>
<clipPath id="clip1_1_4">
<rect width="116" height="55" fill="white" transform="translate(42 29)"/>
</clipPath>
<clipPath id="clip2_1_4">
<rect width="14" height="21" fill="white" transform="translate(51 74)"/>
</clipPath>
</defs>
</svg>
