<svg width="188" height="203" viewBox="0 0 188 203" fill="none" xmlns="http://www.w3.org/2000/svg">
<g clip-path="url(#clip0_1_4)">
<path d="M39.482 130.128L45.124 141.134C47.08 144.952 51.01 147.353 55.3 147.353H59.234C65.395 147.353 70.517 152.1 70.984 158.244L72.258 174.987C72.502 178.2 70.539 181.17 67.487 182.204L25.206 196.529C13.038 200.651 3.254 209.844 -1.616 221.732L-2.31 223.426L-7.539 243.251H214.159C208.159 224.829 195.103 209.536 177.851 200.718L158.736 190.948C142.279 182.537 130.651 166.97 127.255 148.803C124.681 135.039 127.032 120.809 133.897 108.604L135.074 106.51C140.248 97.3112 143.15 87.0092 143.537 76.4621L144.081 61.6362C144.559 48.6029 140.327 35.7162 132.283 25.4502C120.385 10.2662 101.235 2.32185 82.107 4.81254L74.52 5.80034C61.907 7.44264 50.412 13.8804 42.421 23.7764C37.118 30.3439 34.064 38.4404 33.709 46.874L32.609 72.9594C32.459 76.5196 31.785 80.0381 30.608 83.4016C28.106 90.5556 27.909 98.3138 30.044 105.586L31.029 108.94C33.176 116.252 36.006 123.346 39.482 130.128Z" fill="#212121" stroke="#949494" stroke-width="0.640747"/>
<path d="M129.467 117.041L117.012 107.077" stroke="#949494" stroke-width="0.640747"/>
<path d="M35.641 36.4987L61.352 37.7559C69.526 38.1557 77.469 40.606 84.447 44.8813C88.4864 47.3557 91.985 50.6194 94.7337 54.4771L103.59 66.9059C104.203 67.7669 104.533 68.7978 104.533 69.855V86.4559C104.533 88.285 106.772 89.1696 108.022 87.8344L113.516 81.9667C113.917 81.5384 114.478 81.2953 115.064 81.2953H117.246C119.992 81.2953 122.342 83.2678 122.818 85.9729L123.26 88.4852C124.055 93.001 123.324 97.6528 121.182 101.707C120.486 103.026 119.616 104.245 118.597 105.333L117.06 106.974C116.783 107.27 116.595 107.638 116.52 108.036L113.487 123.999C113.125 125.9 111.876 127.514 110.126 128.341L66.363 149.008" stroke="#949494" stroke-width="0.640747"/>
<g clip-path="url(#clip1_1_4)">
<path d="M144.806 82.4913L145.588 63.484C145.607 63.0303 145.421 62.5921 145.083 62.2898L143.006 60.437C120.219 40.1029 90.5555 29.1901 60.0236 29.9089H46.489L34.39 30.4973C33.767 30.5275 33.257 31.0019 33.181 31.6209L31.107 48.4981C41.328 48.3665 51.5297 49.4118 61.5116 51.6132L65.0191 52.3868C85.2451 55.6956 104.795 62.2857 122.896 71.8969L143.865 83.0308C144.282 83.252 144.787 82.9625 144.806 82.4913Z" fill="#313131" stroke="white" stroke-width="0.320373"/>
</g>
</g>
<defs>
<clipPath id="clip0_1_4">
<rect width="188" height="203" fill="white" transform="matrix(-1 0 0 1 188 0)"/>
</clipPath>
<clipPath id="clip1_1_4">
<rect width="116" height="55" fill="white" transform="matrix(-1 0 0 1 146 29)"/>
</clipPath>
</defs>
</svg>
