<svg width="34" height="30" viewBox="0 0 34 30" fill="none" xmlns="http://www.w3.org/2000/svg">
<path d="M33.3076 17.7196C33.2923 16.5053 33.2043 15.2691 32.9603 14.0812C31.4039 6.54121 24.1364 0.603503 16.3654 0.884059C8.91758 1.15585 2.23697 6.81081 0.735532 14.0834C0.491521 15.2713 0.403589 16.5053 0.388201 17.7218C0.342037 21.1718 0.375011 24.6217 0.370615 28.0695C0.370615 28.6767 0.353029 29.2904 1.02131 29.6038C1.683 29.9151 2.14684 29.5227 2.62387 29.1391C4.23741 27.8372 5.89053 26.5835 7.46231 25.2333C7.83162 24.9176 8.1152 24.3083 8.13718 23.8195C8.25589 21.2244 8.09102 18.6029 8.37899 16.0297C8.83624 11.9332 12.6613 8.76594 16.849 8.68265C21.0368 8.76374 24.8596 11.931 25.3168 16.0297C25.6026 18.6029 25.4399 21.2222 25.5587 23.8195C25.5806 24.3083 25.8664 24.9176 26.2335 25.2333C27.8053 26.5835 29.4584 27.8372 31.072 29.1391C31.549 29.5227 32.0128 29.9151 32.6745 29.6038C33.3406 29.2904 33.3252 28.6789 33.3252 28.0695C33.323 24.6196 33.3538 21.1696 33.3076 17.7196Z" fill="white"/>
</svg>
